<mxfile host="65bd71144e">
    <diagram id="jphgJ5XKpXILfgM7gWhX" name="Page-1">
        <mxGraphModel dx="1154" dy="1627" grid="1" gridSize="10" guides="1" tooltips="1" connect="1" arrows="1" fold="1" page="1" pageScale="1" pageWidth="850" pageHeight="1100" math="0" shadow="0">
            <root>
                <mxCell id="0"/>
                <mxCell id="1" parent="0"/>
                <mxCell id="6" value="Client" style="rounded=1;whiteSpace=wrap;html=1;fontSize=30;" vertex="1" parent="1">
                    <mxGeometry x="40" y="40" width="120" height="60" as="geometry"/>
                </mxCell>
                <mxCell id="7" value="Server" style="rounded=1;whiteSpace=wrap;html=1;fontSize=30;" vertex="1" parent="1">
                    <mxGeometry x="360" y="40" width="120" height="60" as="geometry"/>
                </mxCell>
                <mxCell id="8" value="" style="endArrow=none;html=1;fontSize=30;entryX=0.5;entryY=1;entryDx=0;entryDy=0;strokeWidth=4;" edge="1" parent="1" target="6">
                    <mxGeometry width="50" height="50" relative="1" as="geometry">
                        <mxPoint x="100" y="610" as="sourcePoint"/>
                        <mxPoint x="170" y="310" as="targetPoint"/>
                    </mxGeometry>
                </mxCell>
                <mxCell id="9" value="" style="endArrow=none;html=1;fontSize=30;entryX=0.5;entryY=1;entryDx=0;entryDy=0;strokeWidth=4;" edge="1" parent="1" target="7">
                    <mxGeometry width="50" height="50" relative="1" as="geometry">
                        <mxPoint x="420" y="610" as="sourcePoint"/>
                        <mxPoint x="419.5" y="170" as="targetPoint"/>
                    </mxGeometry>
                </mxCell>
                <mxCell id="10" value="" style="endArrow=open;html=1;fontSize=15;strokeWidth=1;endFill=0;endSize=15;labelBackgroundColor=none;fillColor=#60a917;strokeColor=#2D7600;fontColor=#009900;" edge="1" parent="1">
                    <mxGeometry x="-0.0077" y="10" width="50" height="50" relative="1" as="geometry">
                        <mxPoint x="105" y="300" as="sourcePoint"/>
                        <mxPoint x="425" y="340" as="targetPoint"/>
                        <mxPoint as="offset"/>
                    </mxGeometry>
                </mxCell>
                <mxCell id="11" value="" style="endArrow=open;html=1;fontSize=15;strokeWidth=1;endFill=0;endSize=15;labelBackgroundColor=none;fillColor=#a20025;strokeColor=#6F0000;fontColor=#990000;" edge="1" parent="1">
                    <mxGeometry x="-0.0077" y="-10" width="50" height="50" relative="1" as="geometry">
                        <mxPoint x="420" y="210" as="sourcePoint"/>
                        <mxPoint x="100" y="250" as="targetPoint"/>
                        <mxPoint as="offset"/>
                    </mxGeometry>
                </mxCell>
                <mxCell id="29" value="Set-Cookie: 1378" style="text;html=1;strokeColor=none;fillColor=none;align=center;verticalAlign=middle;whiteSpace=wrap;rounded=0;fontSize=20;" vertex="1" parent="1">
                    <mxGeometry x="145" y="190" width="240" height="30" as="geometry"/>
                </mxCell>
                <mxCell id="30" value="Cookie: 1378" style="text;html=1;strokeColor=none;fillColor=none;align=center;verticalAlign=middle;whiteSpace=wrap;rounded=0;fontSize=20;" vertex="1" parent="1">
                    <mxGeometry x="140" y="280" width="240" height="30" as="geometry"/>
                </mxCell>
                <mxCell id="31" value="" style="shape=cylinder3;whiteSpace=wrap;html=1;boundedLbl=1;backgroundOutline=1;size=15;fontSize=20;" vertex="1" parent="1">
                    <mxGeometry x="530" y="180" width="150" height="130" as="geometry"/>
                </mxCell>
                <mxCell id="32" value="Bob:&amp;nbsp; &amp;nbsp; 1378" style="text;html=1;strokeColor=none;fillColor=none;align=center;verticalAlign=middle;whiteSpace=wrap;rounded=0;fontSize=20;" vertex="1" parent="1">
                    <mxGeometry x="530" y="220" width="150" height="30" as="geometry"/>
                </mxCell>
                <mxCell id="33" value="" style="endArrow=open;html=1;fontSize=15;strokeWidth=1;endFill=0;endSize=15;labelBackgroundColor=none;fillColor=#60a917;strokeColor=#2D7600;fontColor=#009900;" edge="1" parent="1">
                    <mxGeometry x="-0.0077" y="10" width="50" height="50" relative="1" as="geometry">
                        <mxPoint x="100" y="130" as="sourcePoint"/>
                        <mxPoint x="420" y="170" as="targetPoint"/>
                        <mxPoint as="offset"/>
                    </mxGeometry>
                </mxCell>
                <mxCell id="34" value="Request: My name is Bob" style="text;html=1;strokeColor=none;fillColor=none;align=center;verticalAlign=middle;whiteSpace=wrap;rounded=0;fontSize=20;" vertex="1" parent="1">
                    <mxGeometry x="145" y="110" width="240" height="30" as="geometry"/>
                </mxCell>
                <mxCell id="35" value="" style="endArrow=open;html=1;fontSize=15;strokeWidth=1;endFill=0;endSize=15;labelBackgroundColor=none;fillColor=#a20025;strokeColor=#6F0000;fontColor=#990000;entryX=0;entryY=0.5;entryDx=0;entryDy=0;" edge="1" parent="1" target="32">
                    <mxGeometry x="-0.0077" y="-10" width="50" height="50" relative="1" as="geometry">
                        <mxPoint x="420" y="210" as="sourcePoint"/>
                        <mxPoint x="110" y="260" as="targetPoint"/>
                        <mxPoint as="offset"/>
                    </mxGeometry>
                </mxCell>
                <mxCell id="36" value="" style="endArrow=open;html=1;fontSize=15;strokeWidth=1;endFill=0;endSize=15;labelBackgroundColor=none;fillColor=#a20025;strokeColor=#6F0000;fontColor=#990000;" edge="1" parent="1">
                    <mxGeometry x="-0.0077" y="-10" width="50" height="50" relative="1" as="geometry">
                        <mxPoint x="420" y="380" as="sourcePoint"/>
                        <mxPoint x="100" y="420" as="targetPoint"/>
                        <mxPoint as="offset"/>
                    </mxGeometry>
                </mxCell>
                <mxCell id="37" value="Response: Hi Bob!" style="text;html=1;strokeColor=none;fillColor=none;align=center;verticalAlign=middle;whiteSpace=wrap;rounded=0;fontSize=20;" vertex="1" parent="1">
                    <mxGeometry x="145" y="360" width="240" height="30" as="geometry"/>
                </mxCell>
                <mxCell id="38" value="Check database" style="text;html=1;strokeColor=none;fillColor=none;align=center;verticalAlign=middle;whiteSpace=wrap;rounded=0;fontSize=20;" vertex="1" parent="1">
                    <mxGeometry x="440" y="340" width="150" height="30" as="geometry"/>
                </mxCell>
                <mxCell id="39" value="" style="endArrow=open;html=1;fontSize=15;strokeWidth=1;endFill=0;endSize=15;labelBackgroundColor=none;fillColor=#60a917;strokeColor=#2D7600;fontColor=#009900;" edge="1" parent="1">
                    <mxGeometry x="-0.0077" y="10" width="50" height="50" relative="1" as="geometry">
                        <mxPoint x="100" y="450" as="sourcePoint"/>
                        <mxPoint x="420" y="490" as="targetPoint"/>
                        <mxPoint as="offset"/>
                    </mxGeometry>
                </mxCell>
                <mxCell id="40" value="Logout" style="text;html=1;strokeColor=none;fillColor=none;align=center;verticalAlign=middle;whiteSpace=wrap;rounded=0;fontSize=20;" vertex="1" parent="1">
                    <mxGeometry x="140" y="430" width="240" height="30" as="geometry"/>
                </mxCell>
                <mxCell id="41" value="" style="endArrow=open;html=1;fontSize=15;strokeWidth=1;endFill=0;endSize=15;labelBackgroundColor=none;fillColor=#a20025;strokeColor=#6F0000;fontColor=#990000;" edge="1" parent="1">
                    <mxGeometry x="-0.0077" y="-10" width="50" height="50" relative="1" as="geometry">
                        <mxPoint x="420" y="530" as="sourcePoint"/>
                        <mxPoint x="100" y="570" as="targetPoint"/>
                        <mxPoint as="offset"/>
                    </mxGeometry>
                </mxCell>
                <mxCell id="42" value="Set-Cookie: END" style="text;html=1;strokeColor=none;fillColor=none;align=center;verticalAlign=middle;whiteSpace=wrap;rounded=0;fontSize=20;" vertex="1" parent="1">
                    <mxGeometry x="145" y="510" width="240" height="30" as="geometry"/>
                </mxCell>
                <mxCell id="43" value="" style="shape=cylinder3;whiteSpace=wrap;html=1;boundedLbl=1;backgroundOutline=1;size=15;fontSize=20;" vertex="1" parent="1">
                    <mxGeometry x="530" y="490" width="150" height="130" as="geometry"/>
                </mxCell>
                <mxCell id="44" value="" style="endArrow=open;html=1;fontSize=15;strokeWidth=1;endFill=0;endSize=15;labelBackgroundColor=none;fillColor=#a20025;strokeColor=#6F0000;fontColor=#990000;entryX=0;entryY=0.5;entryDx=0;entryDy=0;entryPerimeter=0;" edge="1" parent="1" target="43">
                    <mxGeometry x="-0.0077" y="-10" width="50" height="50" relative="1" as="geometry">
                        <mxPoint x="410" y="530" as="sourcePoint"/>
                        <mxPoint x="520" y="555" as="targetPoint"/>
                        <mxPoint as="offset"/>
                    </mxGeometry>
                </mxCell>
                <mxCell id="45" value="Add to Database" style="text;html=1;strokeColor=none;fillColor=none;align=center;verticalAlign=middle;whiteSpace=wrap;rounded=0;fontSize=20;" vertex="1" parent="1">
                    <mxGeometry x="420" y="170" width="110" height="30" as="geometry"/>
                </mxCell>
                <mxCell id="46" value="Remove from Database" style="text;html=1;strokeColor=none;fillColor=none;align=center;verticalAlign=middle;whiteSpace=wrap;rounded=0;fontSize=20;" vertex="1" parent="1">
                    <mxGeometry x="420" y="470" width="110" height="30" as="geometry"/>
                </mxCell>
            </root>
        </mxGraphModel>
    </diagram>
</mxfile>